# xmcd
#
# Track frame offsets:
# 150
# 18863
# 36980
# 56882
# 73898
# 98275
# 112403
# 129550
# 147708
# 167596
# 185966
# 204042
#
# Disc length: 2964 seconds
#
#
# Revision: 0
# Processed by: cddbd v1.5.1PL0 Copyright (c) Steve Scherf et al.
# Submitted via: FreeRIP 2.35 
#
DISCID=b50b920c
DTITLE=Toby Keith - Shock'n Y'all
DYEAR=1900
DGENRE=Country
TTITLE0=I Love This Bar
TTITLE1=Whiskey Girl
TTITLE2=American Soldier
TTITLE3=If I Was Jesus
TTITLE4=Time For Me To Ride
TTITLE5=Sweet
TTITLE6=Don't Leave, I Think I Love You
TTITLE7=Nights I Can't Remember, Friends I'll Never Forget
TTITLE8=Baddest Boots
TTITLE9=The Critic
TTITLE10=The Taliban Song
TTITLE11=Weed With Willie
EXTD=
EXTT0=
EXTT1=
EXTT2=
EXTT3=
EXTT4=
EXTT5=
EXTT6=
EXTT7=
EXTT8=
EXTT9=
EXTT10=
EXTT11=
PLAYORDER=
